<?xml version="1.0" standalone="no"?><!DOCTYPE svg PUBLIC "-//W3C//DTD SVG 1.1//EN" "http://www.w3.org/Graphics/SVG/1.1/DTD/svg11.dtd"><svg t="1791593112213" class="icon" viewBox="0 0 1024 1024" version="1.1" xmlns="http://www.w3.org/2000/svg" p-id="2514" xmlns:xlink="http://www.w3.org/1999/xlink" width="256" height="256"><path d="M240.5632 929.8432l-128.256-14.3616c-48.631467-5.444267-80.4864-43.3152-89.9584-90.8544-29.755733-149.3504-28.637867-369.041067-3.524267-519.509333 8.9344-53.546667 49.134933-90.350933 100.522667-96.674134 1.220267-17.211733 2.312533-36.437333 9.0112-50.781866 4.087467-8.738133 24.072533-20.0192 33.501867-20.1728l87.492266-1.493334c31.616-0.5376 48.802133 28.6208 43.2896 59.921067l50.679467-1.066667 34.030933-70.536533c11.0592-22.920533 36.804267-35.8144 63.172267-35.7888l210.773333 0.170667c28.0832 0.0256 52.8128 14.933333 64.776534 38.8608l33.9968 67.9936 165.632 9.813333c48.554667 2.875733 81.8944 42.24 90.624 90.112 13.226667 72.533333 16.452267 144.810667 16.8192 219.4688l0.836266 170.564267c0.256 51.985067-7.6288 101.4784-18.961066 151.543466-9.924267 43.8272-43.716267 78.250667-88.6528 82.235734l-120.635734 10.683733c-185.326933 7.4496-367.342933 7.3216-555.178666-0.110933z m473.284267-734.225067l-25.454934-49.8944c-9.4976-11.306667-24.584533-22.826667-41.002666-22.877866l-207.035734-0.657067c-13.354667 1.9456-29.098667 9.216-34.909866 20.420267l-27.630934 53.282133 336.034134-0.290133z m-448.187734 0.6144l-4.829866-28.2624-107.3408 0.8448-5.1456 35.473067 117.307733-8.055467z m477.994667 211.3024l241.348267 4.957867-13.149867-117.9136c-10.3424-32.256-33.058133-53.998933-67.2512-55.927467l-156.458667-8.814933-454.3232-0.1024-171.050666 11.434667c-37.546667 2.5088-62.011733 29.832533-71.543467 64.7936L39.7824 411.7248l303.598933-5.0176c104.610133-126.208 296.046933-125.243733 400.273067 0.827733zM765.687467 567.466667c0-123.9296-100.488533-224.392533-224.443734-224.392534S316.8 443.537067 316.8 567.466667s100.488533 224.392533 224.443733 224.392533S765.687467 691.396267 765.687467 567.466667z m210.082133 250.786133c13.371733-79.624533 15.351467-156.689067 13.986133-235.818667l-4.804266-140.586666-222.702934-5.3248c58.973867 101.717333 42.7008 222.6688-32.187733 303.7184-76.987733 83.328-197.742933 104.951467-300.8512 55.620266C290.6624 732.0064 239.701333 562.005333 323.387733 435.7888L38.4512 437.930667c-6.331733 124.8-4.590933 250.2144 13.661867 374.459733 8.951467 65.902933 75.409067 75.383467 146.653866 79.9744 192.264533 12.3648 380.987733 12.586667 573.371734 4.002133l140.6208-12.228266c33.902933-2.952533 56.994133-30.0544 63.010133-65.877334z" fill="#010101" p-id="2515"></path><path d="M975.7696 818.2528c-6.016 35.822933-29.1072 62.9248-63.010133 65.877333l-140.6208 12.228267c-192.392533 8.593067-381.1072 8.3712-573.371734-4.002133-71.2448-4.5824-137.710933-14.062933-146.653866-79.9744-18.2528-124.245333-19.9936-249.659733-13.661867-374.459734l284.936533-2.141866c-83.6864 126.208-32.725333 296.2176 105.821867 360.072533 103.108267 49.322667 223.863467 27.6992 300.8512-55.620267 74.888533-81.0496 91.153067-202.001067 32.187733-303.7184l222.702934 5.3248 4.804266 140.586667c1.3568 79.1296-0.622933 156.194133-13.986133 235.818667z" fill="#FAD0D5" p-id="2516"></path><path d="M743.6544 407.534933c-104.2176-126.071467-295.662933-127.035733-400.273067-0.827733l-303.598933 5.0176 11.4432-105.762133c9.531733-34.961067 33.9968-62.2848 71.543467-64.7936l171.050666-11.434667 454.3232 0.1024 156.458667 8.814933c34.193067 1.928533 56.917333 23.662933 67.2512 55.927467l13.149867 117.9136-241.348267-4.957867z m155.332267-28.842666c16.631467 0.213333 30.609067-20.096 30.4384-33.467734l-0.597334-46.173866c-0.196267-15.061333-15.1808-34.065067-31.761066-33.928534l-95.249067 0.7936c-14.2848 0.119467-31.274667 16.597333-31.7952 29.841067l-2.090667 53.2224c5.102933 12.8512 16.136533 28.228267 30.6432 28.416l100.4032 1.297067z" fill="#FDEAD2" p-id="2517"></path><path d="M765.687467 567.466667c0 123.9296-100.488533 224.392533-224.443734 224.392533S316.8 691.396267 316.8 567.466667s100.488533-224.392533 224.443733-224.392534S765.687467 443.537067 765.687467 567.466667z m-67.387734 0.1792c0-87.287467-70.775467-158.0544-158.088533-158.0544S382.122667 480.349867 382.122667 567.645867s70.775467 158.0544 158.088533 158.0544 158.088533-70.7584 158.088533-158.0544z" fill="#C7CEDA" p-id="2518"></path><path d="M713.847467 195.618133l-336.034134 0.290134 27.630934-53.282134c5.8112-11.204267 21.546667-18.4832 34.909866-20.420266l207.035734 0.657066c16.418133 0.0512 31.505067 11.5712 41.002666 22.877867l25.454934 49.8944z" fill="#CACFDB" p-id="2519"></path><path d="M265.659733 196.232533l-117.307733 8.055467 5.1456-35.473067 107.332267-0.8448 4.829866 28.2624z" fill="#B9B0B6" p-id="2520"></path><path d="M898.986667 378.692267l-100.4032-1.297067c-14.506667-0.187733-25.540267-15.5648-30.6432-28.416l2.090666-53.2224c0.520533-13.243733 17.5104-29.730133 31.7952-29.841067l95.249067-0.7936c16.580267-0.136533 31.5648 18.858667 31.761067 33.928534l0.597333 46.173866c0.170667 13.371733-13.806933 33.681067-30.4384 33.467734z m2.3552-27.7248l-1.7152-57.7536-100.7104 0.930133-0.605867 55.3984 103.031467 1.4336z" fill="#020202" p-id="2521"></path><path d="M698.299733 567.645867c0 87.287467-70.775467 158.0544-158.088533 158.0544S382.122667 654.941867 382.122667 567.645867s70.775467-158.0544 158.088533-158.0544 158.088533 70.7584 158.088533 158.0544z m-31.214933-0.008534c0-69.691733-56.516267-126.199467-126.225067-126.199466S414.634667 497.937067 414.634667 567.637333s56.516267 126.199467 126.225066 126.199467 126.225067-56.4992 126.225067-126.199467z" fill="#010101" p-id="2522"></path><path d="M901.341867 350.967467l-103.022934-1.4336 0.597334-55.3984 100.718933-0.9216 1.706667 57.7536z" fill="#C5CDD8" p-id="2523"></path><path d="M667.0848 567.637333c0 69.691733-56.516267 126.199467-126.225067 126.199467S414.634667 637.3376 414.634667 567.637333s56.516267-126.199467 126.225066-126.199466 126.225067 56.4992 126.225067 126.199466z m-59.349333-37.102933c8.7296-9.565867 1.988267-28.552533-5.6576-35.882667-7.611733-7.278933-24.0896-11.477333-32.529067-3.968-11.9296 10.606933-6.784 26.7264 1.493333 35.242667 8.337067 8.576 24.1408 18.3552 36.701867 4.608z m9.540266 49.134933c0-7.517867-6.101333-13.6192-13.6192-13.6192s-13.6192 6.0928-13.6192 13.6192 6.101333 13.6192 13.6192 13.6192 13.6192-6.0928 13.6192-13.6192z" fill="#76696B" p-id="2524"></path><path d="M607.735467 530.5344c-12.552533 13.7472-28.3648 3.968-36.701867-4.608-8.2688-8.507733-13.4144-24.6272-1.493333-35.242667 8.439467-7.509333 24.925867-3.310933 32.529066 3.968 7.6544 7.3216 14.395733 26.3168 5.6576 35.882667z" fill="#B2B0B6" p-id="2525"></path><path d="M603.656533 579.669333m-13.6192 0a13.6192 13.6192 0 1 0 27.2384 0 13.6192 13.6192 0 1 0-27.2384 0Z" fill="#AFA9AD" p-id="2526"></path></svg>